<svg xmlns="http://www.w3.org/2000/svg" xmlns:xlink="http://www.w3.org/1999/xlink" viewBox="0 0 166.75 191.43">
  <defs>
    <style>
      .cls-1 {
        fill: none;
      }

      .cls-2 {
        clip-path: url(#clip-path);
      }

      .cls-3 {
        fill: #0c90a8;
      }

      .cls-4 {
        fill: #f7e1ca;
      }

      .cls-5 {
        clip-path: url(#clip-path-2);
      }

      .cls-6 {
        clip-path: url(#clip-path-3);
      }
    </style>
    <clipPath id="clip-path" transform="translate(-15.16 -4.93)">
      <rect class="cls-1" x="-9.14" y="42.29" width="229.57" height="136.44" transform="translate(-43.57 77.22) rotate(-33.71)"/>
    </clipPath>
    <clipPath id="clip-path-2" transform="translate(-15.16 -4.93)">
      <rect class="cls-1" x="-8.66" y="42.38" width="228.33" height="136.44" transform="translate(-43.64 77.16) rotate(-33.71)"/>
    </clipPath>
    <clipPath id="clip-path-3" transform="translate(-15.16 -4.93)">
      <rect class="cls-1" x="-5.75" y="52.78" width="229.65" height="123.98" transform="translate(-45.36 79.84) rotate(-33.71)"/>
    </clipPath>
  </defs>
  <g id="Livello_3" data-name="Livello 3">
    <g class="cls-2">
      <path class="cls-3" d="M122.69,181a10.68,10.68,0,0,1-1,.6,16.67,16.67,0,0,1-3.35,1.41,4.1,4.1,0,0,1-1.34.23c-.59,0-.64-.07-.78-.69a8.33,8.33,0,0,1-2.42-.65c-.76-.32-1.53-.64-2.26-.92l-1.18-.43a1.2,1.2,0,0,1-.78,0,44.25,44.25,0,0,0-8.4-2l-.06,0a117.06,117.06,0,0,0-13.63-1.6,77.12,77.12,0,0,0-14.37.43c-2.87.32-6.29.72-9.72,1.36a44.27,44.27,0,0,0-9.74,3.08,110.81,110.81,0,0,0-11.77,6c-1.31.76-2.63,1.59-4,2.53s-2.79,1.92-4.34,3.07c-1.27.9-2.55,1.8-3.92,2.72-.42.28-.77.41-1.13,0a3.37,3.37,0,0,1-3-.27,3,3,0,0,1-1.44-2.24.7.7,0,0,1-.34-.93c.1-.34.17-.66.26-1l.08-.38a10.82,10.82,0,0,0-1.16-.83,15.69,15.69,0,0,1-1.42-1c-.21,0-.31,0-.42,0a.67.67,0,0,1-.24-.45,5.29,5.29,0,0,1-1.54-3.38.57.57,0,0,0-.09-.38s0-.1-.07-.18a1,1,0,0,1,.05-.92.24.24,0,0,1,.07-.15l3.6-11.45c.08-.28.19-.62.27-.9l.12-.41a.41.41,0,0,0-.47.21s0,0-.05.09a81.06,81.06,0,0,0-6.45,7.67.35.35,0,0,0-.09.11,1.27,1.27,0,0,1-.3.31.35.35,0,0,1-.36,0c-.37-.14-.28-.42-.16-.72a1,1,0,0,1,0-.73v-.06c1.23-3.86,2.63-7.78,3.94-11.51.55-1.58,1.13-3.18,1.67-4.76.69-2,1.38-3.89,2-5.81s1.26-3.65,1.92-5.47c.81-2.25,1.59-4.54,2.37-6.77l1.49-4.2c1.16-3.3,2.35-6.64,3.48-10l3.87-11.13c.94-2.72,1.9-5.41,2.84-8.13a2.59,2.59,0,0,1,.34-.72,1.15,1.15,0,0,1,0-1.2l0-.13c.7-2,1.36-4,2-6l3.77-11.12c2.79-8.2,5.71-16.71,8.5-25.08a11.1,11.1,0,0,1,4.81-5.91,7.59,7.59,0,0,1,.94-.57c3.23-1.94,6.86-2.93,10.37-3.95l.28-.07c.24-.05.46-.14.7-.19l.84-.23a.81.81,0,0,1,.8.13,26.4,26.4,0,0,1,4.1-1.13l.1,0a75.81,75.81,0,0,1,7.49-1.25c1.58-.17,3.19-.25,4.92-.3a53.48,53.48,0,0,1,6,.15,36.14,36.14,0,0,1,3.76.53l.19,0c2.27.42,4.59.86,6.84,1.51,1.57.44,2.93.91,4.16,1.36A53.77,53.77,0,0,1,117.87,60a46.59,46.59,0,0,1,6,4.17.82.82,0,0,0,.58.21l.18-.06a.72.72,0,0,0,.27-.51c.12-.47.19-.95.31-1.42.17-.83.4-1.64.56-2.47.33-1.49.72-3,1.12-4.44.12-.47.25-.94.34-1.38.35-1.29.71-2.57,1.06-3.86l.34-1.22a48.78,48.78,0,0,1,2.58-7.12c1.6-3.39,2.93-6.09,4.37-8.49,0-.06.05-.08.06-.15a1.28,1.28,0,0,1,.39-.48l.12-.08a.24.24,0,0,1,.12-.3l0,0a.21.21,0,0,1,.12-.24l1.87-3.29a41.89,41.89,0,0,1,4.63-6.62c.9-1,1.78-2.12,2.64-3.14,1.49-1.82,3-3.69,4.69-5.44a50.88,50.88,0,0,1,7.61-6.68l.46-.3a17.21,17.21,0,0,1,2.34-1.35l.12-.08c.25-.11.48-.27.74,0s.16.5.05.74c0,.06-.05.09,0,.13-.53,1.34-1,2.66-1.53,4.05L158,15.5a.3.3,0,0,0,.39.07l.07-.05.08,0c.74-.38,1.44-.74,2.11-1.13,1.41-.78,2.92-1.57,4.38-2.26a14.82,14.82,0,0,1,4.34-1.35,6.15,6.15,0,0,1,6.23,2.57c.5.66,1,1.39,1.44,2.07l.63,1c.17,0,.31,0,.48,0l1-.1a2.23,2.23,0,0,1,1.76.58,2.3,2.3,0,0,1,.68,1.76c0,.22,0,.45,0,.68s0,.23,0,.36a1.64,1.64,0,0,1,.07,1.17c-1.38,7.76-2.72,15.49-4.08,23.29l-2,11.66c-3,17.48-6.09,34.89-9.13,52.37-.23,1.14-.4,2.3-.6,3.48s-.43,2.5-.64,3.74c-.12.58-.24,1.21-.36,1.78l-.14.54a6.31,6.31,0,0,1-2.61,3.84,102.81,102.81,0,0,0-11.18,9.66l-1,.93a87.23,87.23,0,0,0-7.05,7.52l0,0a1.91,1.91,0,0,1-.53.53.37.37,0,0,1-.22.09,149.67,149.67,0,0,0-8.58,14.38c-1,2-2,4-2.82,6l-.05.08,0,.2a.67.67,0,0,1-.24.38l-.11.07a.26.26,0,0,1,0,.36c0,.06-.05.09-.06.15l-.08.39c-.09.27-.11.57-.2.85l-.14.7c-.53,2.17-1.08,4.41-1.43,6.68a29.61,29.61,0,0,1-1.21,5.22A10.44,10.44,0,0,1,122.69,181Z" transform="translate(-15.16 -4.93)"/>
    </g>
    <path class="cls-4" d="M43.26,126.38l8.85-30.06c1.73-5.84,3.39-11.69,5.18-17.52a14.26,14.26,0,0,1,5-7.32,24.3,24.3,0,0,1,4.88-3.1,2,2,0,0,1,1.15-.32,3.68,3.68,0,0,1,.64-.37c1.76-.91,3.53-1.81,5.31-2.61a60.8,60.8,0,0,1,9.93-3.7,37.15,37.15,0,0,1,14.94-1c1.66.27,3.34.64,5,1a33.87,33.87,0,0,1,14,6.68c2.25,1.8,4.4,3.79,6.53,5.73a103.5,103.5,0,0,1,7.72,7.53c.94,1.09,2,2.09,3,3.11a12.91,12.91,0,0,0,1,.9,2.22,2.22,0,0,0,2.64.33c2.06-1,2.23-2,1.84-3.6a107.94,107.94,0,0,1-2.18-13.43c0-.14,0-.26-.05-.4a48.69,48.69,0,0,1,5.86-25.65A64,64,0,0,1,152.1,32a44.78,44.78,0,0,1,12.82-10.6c1.22-.64,2.41-1.33,3.63-2s2.27-1.13,3.41-1.66a21.88,21.88,0,0,1,4.83-1.35,22.72,22.72,0,0,0-2.65-3.47,4.59,4.59,0,0,0-3.93-1.35A13.18,13.18,0,0,0,165,13.19c-2.29,1.2-4.56,2.33-6.8,3.6a54.19,54.19,0,0,0-6.65,4.49,55.61,55.61,0,0,0-6.19,5.57,46.8,46.8,0,0,0-5.92,7.81,4.33,4.33,0,0,1-.37.52.35.35,0,0,1-.47,0,.41.41,0,0,1-.22-.41,1.24,1.24,0,0,1,.36-.78,42.89,42.89,0,0,1,4.42-6.1,49.84,49.84,0,0,1,6.55-6.36,61.16,61.16,0,0,1,6.67-4.78,1.34,1.34,0,0,0,.61-.73c1.17-3,2.34-6.09,3.46-9.1,0-.12.12-.24,0-.39a1.21,1.21,0,0,0-.76.34,45.3,45.3,0,0,0-6.53,5.18,108.12,108.12,0,0,0-7.35,8.21c-1.52,1.85-3.1,3.61-4.44,5.56a43.28,43.28,0,0,0-7.46,18.71,96.42,96.42,0,0,0-1.12,12.77,64.28,64.28,0,0,0,.83,11.58c.32,2,.58,4.08,1.08,6.06.09.38.21.74.28,1.08a.48.48,0,0,1-.18.56.43.43,0,0,1-.57-.11c-.05-.08-.14-.13-.17-.17a61.06,61.06,0,0,0-4.68-6,47.52,47.52,0,0,0-4.57-5c-.56-.5-.57-.6-.24-1.1A.77.77,0,0,1,124,64a51.27,51.27,0,0,0-6-4.18,47.75,47.75,0,0,0-7.89-3.72c-1.38-.51-2.76-.92-4.15-1.36a66.43,66.43,0,0,0-7.07-1.52c-1.25-.22-2.53-.41-3.77-.52a58.33,58.33,0,0,0-6-.15c-1.67.06-3.29.1-4.92.3a75,75,0,0,0-7.49,1.25,33.21,33.21,0,0,0-4.19,1.14c.12.52-.17.66-.61.74-2.37.58-4.72,1.27-7,2a23.39,23.39,0,0,0-7,3.6,9.36,9.36,0,0,0-3.41,4.64c-4.27,12.67-8.57,25.3-12.88,38-.56,1.63-1.12,3.28-1.61,4.93-.12.41-.33.5-.72.48a5.47,5.47,0,0,0-.35.73c-1.23,3.52-2.5,7.07-3.7,10.63-.85,2.44-1.69,4.82-2.54,7.26-1.32,3.81-2.66,7.57-4,11.37s-2.59,7.36-3.84,11-2.63,7.54-3.93,11.28c-1.91,5.41-3.87,10.8-5.66,16.29-.09.28-.2.52,0,.79,2-2.54,4-5,6.18-7.43.67-.72,1.28-1.46,2-2.15a3.05,3.05,0,0,0,.78-1.29c1.32-4.14,2.58-8.28,3.9-12.42q5.07-16,10.09-32.1c3.5-11.1,7-22.08,10.42-33.1,1.64-5.22,3.31-10.48,4.92-15.74.09-.28.17-.5.26-.78a.43.43,0,0,1,.54-.25.35.35,0,0,1,.24.44,5.23,5.23,0,0,1-.12.64c-3.34,10.61-6.63,21.19-10,31.76-4.65,14.74-9.27,29.52-13.89,44.24q-5.16,16.66-10.42,33.26a3.51,3.51,0,0,1-.18.55.51.51,0,0,1-.79.31,4.18,4.18,0,0,1,.09.55,5.15,5.15,0,0,0,1.55,3.38c.51-1.95,1.07-3.92,1.59-5.86,1.21-4.89,2.78-9.63,4.13-14.45.4-1.31.69-2.61,1.08-3.92.08-.22.13-.47.24-.71a.37.37,0,0,1,.51-.23.36.36,0,0,1,.24.45c0,.19-.09.44-.12.63-1,4-2.29,8-3.44,11.94-1.12,3.78-2.08,7.62-3.1,11.45a2.42,2.42,0,0,1-.48,1.2c.79.68,1.74,1.11,2.56,1.77.7-2,1.23-4,1.84-6.08,3-10,5.92-20.11,8.91-30.16C37.61,145.42,40.4,135.9,43.26,126.38ZM159.47,21.32a32.15,32.15,0,0,1,4.36-2.63,11.19,11.19,0,0,0,1.12-.64.87.87,0,0,1,.43-.17.44.44,0,0,1,.5.16.36.36,0,0,1-.1.51,2.78,2.78,0,0,1-.88.59,40.71,40.71,0,0,0-4.07,2.32,52.76,52.76,0,0,0-10.25,9.16c-.18.23-.32.43-.49.66a.43.43,0,0,1-.56.15.4.4,0,0,1-.14-.62,5.57,5.57,0,0,1,.51-.73,45,45,0,0,1,6.71-6.52C157.57,22.76,158.51,22,159.47,21.32Zm-22.13,25a3.71,3.71,0,0,1,.12-.63,39.27,39.27,0,0,1,6.35-12.62,53.37,53.37,0,0,1,8.66-9.31c.39-.32.81-.6,1.25-.94a.4.4,0,0,1,.61.09.54.54,0,0,1-.27.67c-.71.59-1.45,1.13-2.11,1.79-5.75,5.33-10.53,11.39-13.16,18.93-.2.52-.31,1.09-.51,1.61a2.34,2.34,0,0,1-.26.61.42.42,0,0,1-.47.21A.36.36,0,0,1,137.34,46.35ZM112.82,61.22c.13-.31.46-.31,1,0A44.8,44.8,0,0,1,122.25,67a83.67,83.67,0,0,1,8.64,8.07,2.58,2.58,0,0,0,.21.25c.25.28.36.53.11.81s-.52.13-.82-.23A41.16,41.16,0,0,0,127,72.42a83,83,0,0,0-10.34-8.48c-1.08-.71-2.22-1.33-3.35-2C113.06,61.83,112.66,61.71,112.82,61.22Zm-10.66-3.43,2.8.56a1.27,1.27,0,0,1,.47.13.37.37,0,0,1,.32.39c0,.27-.18.4-.44.41a2.34,2.34,0,0,1-.81-.12,48.63,48.63,0,0,0-8.91-1.23A44.93,44.93,0,0,0,77,61.12l-.54.19c-.24.06-.43,0-.52-.2s0-.39.18-.56l.19-.13A30.4,30.4,0,0,1,80.13,59,47,47,0,0,1,102.16,57.79ZM57.38,67.05a1.3,1.3,0,0,1,.28-.41,9.93,9.93,0,0,1,2.26-2.22,49.9,49.9,0,0,1,14.65-7.35,60.85,60.85,0,0,1,10.57-2.42,17.47,17.47,0,0,1,3.24-.18c.23,0,.42.06.65.07a.44.44,0,0,1,.37.47c0,.23-.21.35-.47.37-.07,0-.1,0-.17,0a26.58,26.58,0,0,0-7.54.84A61.08,61.08,0,0,0,67,61.07a47.19,47.19,0,0,0-4.36,2.47,19.43,19.43,0,0,0-4.33,3.66,1.44,1.44,0,0,1-.29.31.45.45,0,0,1-.52,0A.34.34,0,0,1,57.38,67.05Zm69.34-1.26a8.56,8.56,0,0,0-1.88-1.67.82.82,0,0,0,.27-.51c.29-1.3.6-2.56.9-3.85.41-1.94,1-3.84,1.48-5.79l1.41-5.08a47.24,47.24,0,0,1,2.57-7.12,91.84,91.84,0,0,1,4.37-8.48,1.59,1.59,0,0,1,.6-.74.33.33,0,0,1,.17-.33.25.25,0,0,1,.12-.24.25.25,0,0,1-.12.24.3.3,0,0,1-.17.33c0,.14-.05.26-.07.38a48,48,0,0,0-3.27,11.78A89.82,89.82,0,0,0,132,56.5a69.07,69.07,0,0,0,1.12,14.15c.18.92.28,1.91.42,2.86-.32.1-.37-.14-.47-.3C131.07,70.66,129,68.15,126.72,65.79Zm6.08,27.6a1.33,1.33,0,0,0-.21-1.14c-.71-.9-1.4-1.76-2.07-2.69a57,57,0,0,0-8.92-9.32,60.53,60.53,0,0,0-20.24-10.77,21.51,21.51,0,0,0-8.33-1,55.05,55.05,0,0,0-8.5,1.2,24.14,24.14,0,0,0-5,1.44,54.86,54.86,0,0,0-7.67,4.35,54,54,0,0,0-6.27,5.06A5.25,5.25,0,0,0,63.92,83c-1.26,4.14-2.62,8.3-4,12.46Q46.83,136.77,33.72,178c-.91,2.87-1.79,5.66-2.69,8.53a2.4,2.4,0,0,0-.14,1.36c.09.38.33.49.66.33a6,6,0,0,0,1.7-1.08,11.18,11.18,0,0,1,.94-.74,88.9,88.9,0,0,1,7.68-5.18,94.84,94.84,0,0,1,9.63-5.05,66.44,66.44,0,0,1,17.66-5,108.26,108.26,0,0,1,18.62-.74A73.1,73.1,0,0,1,99,171.89a133.43,133.43,0,0,1,18.15,4.66,1.26,1.26,0,0,0,.47.12.38.38,0,0,0,.52-.29c.11-.57.44-1.07.53-1.68,1-5.82,2-11.63,3-17.45,3.38-19.62,6.82-39.24,10.2-58.86C132.23,96.75,132.5,95.08,132.8,93.39Zm-15,81.21c0,.19-.07.38-.11.57-.14.54-.22.59-.74.39a98.18,98.18,0,0,0-9.86-2.81,110.88,110.88,0,0,0-17.66-3.1,109.92,109.92,0,0,0-14.29,0A67.06,67.06,0,0,0,57.32,173a69.76,69.76,0,0,0-12.82,5.63c-2,1.18-4,2.31-6,3.56s-4.08,2.89-6.06,4.38c-.16.1-.26.28-.52.29a2.19,2.19,0,0,1,.21-.92q16.4-51.46,32.74-103a3.86,3.86,0,0,1,1.19-1.68,56.73,56.73,0,0,1,11.31-8.15,19.62,19.62,0,0,1,5.1-2,65.44,65.44,0,0,1,10.22-1.69,23.31,23.31,0,0,1,9.12,1.2,60.69,60.69,0,0,1,18.88,10.13,58.67,58.67,0,0,1,8.41,8.56c.84,1.1,1.68,2.19,2.56,3.26a1.33,1.33,0,0,1,.2,1.13c-.7,4-1.38,7.92-2.08,11.92Q123.75,140.1,117.79,174.6ZM175.86,22.19l-.53.19c-1.36.69-2.72,1.37-4,2.14A71.91,71.91,0,0,0,163,30a43.27,43.27,0,0,0-4.05,3.59A52.69,52.69,0,0,0,147.35,52a38.25,38.25,0,0,0-2.53,15.86,100.46,100.46,0,0,0,1.41,13.34,8.61,8.61,0,0,1,0,3.08c-1.64,9.59-3.25,19.15-4.89,28.74-1.43,8.35-2.83,16.73-4.26,25.07-.08.55-.22,1.08-.32,1.59a.44.44,0,0,0,.16.5.45.45,0,0,0,.59-.11c.08,0,.1-.18.15-.27.35-.56.7-1.18,1-1.74a61,61,0,0,1,8.72-11.39,69.33,69.33,0,0,1,9.85-8.67c.46-.31.89-.65,1.34-.89a2,2,0,0,0,1-1.48c1.46-7.81,2.94-15.58,4.46-23.37Q170.6,58.51,177,24.73c.09-.44.18-.89.24-1.37C177.48,22.38,176.85,21.86,175.86,22.19ZM138.42,136.74a.19.19,0,0,1-.1,0v-.06a.15.15,0,0,1,.1,0A0,0,0,0,1,138.42,136.74ZM176.27,24q-4.08,21.49-8.19,43C165.06,83,162,99,159,115a2.21,2.21,0,0,1-1.12,1.63,46.76,46.76,0,0,0-7.4,5.92c-2.12,2-4.24,4-6.13,6.25A67.32,67.32,0,0,0,139,136c-.1.18-.26.35-.36.52a.39.39,0,0,1-.18.07.94.94,0,0,1,0-.89c.48-2.75.9-5.51,1.38-8.26l7.45-43.91a3.25,3.25,0,0,0,0-1.28,118.43,118.43,0,0,1-1.55-14,38.78,38.78,0,0,1,2.54-16.09,51.6,51.6,0,0,1,10.92-17.48,37.65,37.65,0,0,1,5.44-4.74A78.59,78.59,0,0,1,174,24.12a17.64,17.64,0,0,1,2.4-1.1A1.36,1.36,0,0,1,176.27,24Z" transform="translate(-15.16 -4.93)"/>
    <g class="cls-5">
      <path class="cls-3" d="M129.47,70.24a61.16,61.16,0,0,1,4.69,6c.05.07.1.15.16.16.17.17.35.27.58.12a.42.42,0,0,0,.17-.56c-.09-.38-.21-.74-.28-1.08-.5-2-.75-4-1.07-6.07a64.29,64.29,0,0,1-.84-11.58A94.34,94.34,0,0,1,134,44.49a43.28,43.28,0,0,1,7.46-18.71c1.38-2,3-3.73,4.45-5.56A88.21,88.21,0,0,1,153.26,12a41.8,41.8,0,0,1,6.52-5.18,1.32,1.32,0,0,1,.76-.34c.1.15,0,.27,0,.39q-1.75,4.56-3.46,9.1a1.77,1.77,0,0,1-.61.74,60,60,0,0,0-6.67,4.78,49.9,49.9,0,0,0-6.56,6.36A52.34,52.34,0,0,0,138.81,34a2,2,0,0,0-.35.79.41.41,0,0,0,.21.4.47.47,0,0,0,.47,0,2.22,2.22,0,0,0,.37-.53,47.14,47.14,0,0,1,5.92-7.8,54.44,54.44,0,0,1,6.2-5.57,50.65,50.65,0,0,1,6.65-4.49c2.23-1.28,4.54-2.43,6.79-3.6a14.23,14.23,0,0,1,5.25-1.63,4.84,4.84,0,0,1,3.93,1.35,23.06,23.06,0,0,1,2.65,3.47c.55.41.57.45,1-.1-.69-1-1.31-2.05-2.08-3a6.07,6.07,0,0,0-6.23-2.57A15.78,15.78,0,0,0,165.24,12c-2.2,1.08-4.32,2.28-6.46,3.37-.11.08-.29.31-.55.09.45-1.23,1-2.46,1.4-3.69.75-1.93,1.46-3.84,2.21-5.77.13-.31.32-.6,0-.89s-.62,0-.88.09a18.26,18.26,0,0,0-2.81,1.65,48.76,48.76,0,0,0-7.6,6.68c-2.57,2.76-4.88,5.73-7.34,8.58a45,45,0,0,0-4.66,6.64c-.64,1.09-1.23,2.2-1.87,3.29a.25.25,0,0,1-.12.24.32.32,0,0,1-.16.34c0,.14,0,.25-.08.38a48.17,48.17,0,0,0-3.27,11.78A91.25,91.25,0,0,0,132,56.53a69,69,0,0,0,1.12,14.14c.18.93.29,1.91.42,2.86-.31.1-.37-.14-.47-.29-2-2.58-4.11-5.09-6.37-7.49a8.88,8.88,0,0,0-1.89-1.67s-.14,0-.17.07c-.31.53-.32.59.24,1.1A49,49,0,0,1,129.47,70.24Zm51.39-50.06-.57,3.36c-.86,4.82-1.7,9.68-2.52,14.47s-1.69,9.68-2.51,14.48-1.7,9.68-2.52,14.47-1.67,9.55-2.52,14.31-1.71,9.74-2.56,14.67c-.67,3.86-1.34,7.73-2,11.62-.52,2.94-1,5.88-1.52,8.79a6.66,6.66,0,0,1-3,4.53,29.45,29.45,0,0,0-2.69,2.07c-1.35,1.12-2.62,2.35-3.94,3.51-2.84,2.51-5.55,5.14-8.2,7.85a57.15,57.15,0,0,0-4.19,4.72c-.44.57-.45.63.12,1.08a2.07,2.07,0,0,0,.8-.7,85,85,0,0,1,7.05-7.52,110.22,110.22,0,0,1,12.16-10.59,6.43,6.43,0,0,0,2.65-3.87c.16-.76.37-1.51.5-2.31.44-2.39.82-4.8,1.24-7.23q5.49-31.38,11-62.74l4.28-24.47a1.93,1.93,0,0,0-.06-1.17C181.16,19.48,180.92,19.7,180.86,20.18ZM35,157.41q4-13.4,7.91-26.79c2.47-8.43,5-16.83,7.4-25.23s5-17,7.54-25.55a16.55,16.55,0,0,1,3.42-6.25,19.2,19.2,0,0,1,3.39-2.76,18.42,18.42,0,0,1,3.17-1.78c.66-.33.71-.42.43-1a3.23,3.23,0,0,0-1.16.33,30.92,30.92,0,0,0-4.88,3.09,14.46,14.46,0,0,0-5,7.33c-1.78,5.83-3.44,11.68-5.17,17.52q-4.42,15-8.86,30.06c-2.79,9.53-5.61,19.08-8.43,28.57-2.95,10-5.92,20.11-8.91,30.16-.59,2-1.14,4.07-1.84,6.08-.12.47-.25.94-.34,1.38s-.05.75.34.93a.82.82,0,0,0,.51-.56c1.07-3.69,2.16-7.34,3.21-11Q31.42,169.65,35,157.41ZM16.16,179.32s.05-.09.09-.11c2.05-2.7,4.26-5.33,6.55-7.85.13-.14.19-.29.46-.31-.13.47-.28.91-.4,1.31-1.19,3.83-2.4,7.62-3.6,11.45-.1.34-.3.7-.08,1.11a.52.52,0,0,0,.78-.31c.07-.15.1-.34.18-.56,3.49-11,7-22.12,10.43-33.16,4.66-14.74,9.29-29.52,13.9-44.23,3.34-10.61,6.63-21.19,10-31.76a2,2,0,0,0,.13-.64.35.35,0,0,0-.24-.44.42.42,0,0,0-.55.25,3.64,3.64,0,0,0-.25.77c-1.64,5.23-3.31,10.49-4.92,15.75q-5.18,16.53-10.37,33c-3.39,10.69-6.71,21.4-10.1,32.1-1.31,4.13-2.59,8.24-3.89,12.41a2.91,2.91,0,0,1-.78,1.3c-.7.69-1.31,1.43-2,2.15-2.16,2.38-4.18,4.89-6.17,7.43-.11.24-.2.52.17.66S16,179.55,16.16,179.32ZM144.4,88.4a3.9,3.9,0,0,0,.12-.9.43.43,0,0,0-.35-.43.43.43,0,0,0-.52.29,6.56,6.56,0,0,0-.17.73c-.51,2.7-1.06,5.44-1.56,8.15-2.09,10.82-4.24,21.63-6.33,32.46q-3.42,17.67-6.94,35.35c-.33,1.65-.76,3.31-1.06,5-.18,1.05-.33,2.15-.57,3.19a15,15,0,0,1-1.38,4.29c-1.93,3.38-5,5.11-8.73,5.82a1.79,1.79,0,0,0-.7.19c.13.69.22.74.81.73a6.58,6.58,0,0,0,1.38-.26,15.28,15.28,0,0,0,3.35-1.41,11.27,11.27,0,0,0,5.36-6.17,24.63,24.63,0,0,0,1.21-5.21c.39-2.47,1-4.93,1.59-7.36a8.44,8.44,0,0,0,.28-1.23.36.36,0,0,1,0-.52l0,0c-.17-.27,0-.54,0-.79.78-4.11,1.59-8.18,2.38-12.29,2.11-11,4.26-21.93,6.44-32.87Q141.76,101.86,144.4,88.4Zm-37.61,90.35a113,113,0,0,0-15.06-2.42c-2.28-.19-4.54-.45-6.78-.5a113.33,113.33,0,0,0-20.57,1.7,47.49,47.49,0,0,0-13.27,4.39c-1.68.79-3.29,1.59-4.92,2.45-1.8.93-3.6,1.86-5.33,2.9-1.48.93-2.93,1.9-4.34,2.84-2.58,1.67-4.91,3.61-7.54,5.2a.86.86,0,0,0-.48.7c.39.41.78.26,1.16,0,1.34-.89,2.67-1.78,3.92-2.72,2.7-2,5.5-3.89,8.38-5.6a113,113,0,0,1,11.77-6,43,43,0,0,1,9.74-3.08c3.25-.57,6.44-1,9.72-1.36a79.8,79.8,0,0,1,14.33-.41,129.58,129.58,0,0,1,13.63,1.61,47.69,47.69,0,0,1,8.42,2.05,1,1,0,0,0,.79,0c.13-.63.07-.71-.45-.91C108.88,179.33,107.89,179,106.79,178.75Zm-66.72-69.6c.54-1.68,1.06-3.3,1.61-4.94,4.28-12.66,8.62-25.32,12.89-38A9.78,9.78,0,0,1,58,61.58a23.66,23.66,0,0,1,7-3.6c2.3-.76,4.65-1.45,7-2,.42-.12.74-.22.61-.74a1.19,1.19,0,0,0-.86-.14c-.5.16-1,.25-1.57.38-3.67,1-7.34,2-10.65,4C56.85,61.06,54.72,63,53.72,66,49.84,77.54,45.9,89,42,100.45c-.89,2.63-1.8,5.23-2.65,7.83-.16.44-.35.89,0,1.33A.57.57,0,0,0,40.07,109.15ZM21.52,189.42a2.51,2.51,0,0,0,.47-1.2c1-3.82,2-7.67,3.1-11.44,1.16-4,2.44-7.91,3.44-11.95a2.2,2.2,0,0,0,.12-.63.36.36,0,0,0-.24-.45.38.38,0,0,0-.5.23,4.94,4.94,0,0,0-.25.71c-.35,1.29-.68,2.61-1.08,3.92-1.35,4.82-2.92,9.57-4.13,14.45-.49,2-1.07,3.92-1.59,5.87C20.92,189.27,21.1,189.53,21.52,189.42Zm38.4-125a10.34,10.34,0,0,0-2.26,2.22,2,2,0,0,0-.28.41.37.37,0,0,0,.08.44.36.36,0,0,0,.52,0,1.38,1.38,0,0,0,.29-.3,18.51,18.51,0,0,1,4.33-3.67A44.89,44.89,0,0,1,67,61.1a61.27,61.27,0,0,1,14.22-4.86,28.24,28.24,0,0,1,7.54-.84h.17c.24,0,.42-.11.47-.37a.44.44,0,0,0-.37-.47,6,6,0,0,0-.65-.06,15.36,15.36,0,0,0-3.24.18,61,61,0,0,0-10.57,2.41A49.63,49.63,0,0,0,59.92,64.42Zm16.46-4-.19.12c-.19.13-.33.34-.18.57a.36.36,0,0,0,.52.2l.54-.2A46.09,46.09,0,0,1,95.65,58a47.87,47.87,0,0,1,8.92,1.22c.25,0,.51.1.8.13a.44.44,0,0,0,.44-.41.36.36,0,0,0-.31-.4c-.16-.06-.32-.06-.48-.12l-2.79-.56a47.23,47.23,0,0,0-22,1.21A21,21,0,0,0,76.38,60.44Zm77.69-36.73c.2-.19.41-.38.27-.67a.36.36,0,0,0-.61-.09,9.5,9.5,0,0,0-1.25.94,55.06,55.06,0,0,0-8.66,9.31,39.16,39.16,0,0,0-6.35,12.62,2.2,2.2,0,0,0-.12.63.36.36,0,0,0,.28.42.32.32,0,0,0,.47-.2,3.71,3.71,0,0,0,.25-.61c.18-.56.32-1.1.52-1.62,2.63-7.54,7.36-13.57,13.16-18.92A16.9,16.9,0,0,1,154.07,23.71ZM116.74,64a88.19,88.19,0,0,1,10.34,8.49c1.18,1.09,2.29,2.28,3.38,3.48.29.36.67.44.81.23s.1-.5-.1-.81a3.25,3.25,0,0,1-.22-.24A75.89,75.89,0,0,0,122.31,67a47.65,47.65,0,0,0-8.46-5.83c-.57-.28-.86-.3-1,0-.17.5.24.61.54.74C114.5,62.58,115.66,63.24,116.74,64Zm33.38-32.7.5-.66a52.52,52.52,0,0,1,10.25-9.15,31.48,31.48,0,0,1,4.07-2.33,2.86,2.86,0,0,0,.88-.58.46.46,0,0,0,.1-.51.36.36,0,0,0-.5-.17c-.14,0-.29.14-.43.18a11.11,11.11,0,0,0-1.12.63,37.72,37.72,0,0,0-4.36,2.64c-1,.69-1.9,1.43-2.82,2.21A45.06,45.06,0,0,0,150,30a5.57,5.57,0,0,0-.51.73c-.11.24-.12.47.14.62S150,31.46,150.12,31.25Z" transform="translate(-15.16 -4.93)"/>
    </g>
    <g class="cls-6">
      <path class="cls-3" d="M179.27,16.06l-1.45.14c-.41.54-.41.54-1,.1A24.88,24.88,0,0,0,172,17.65c-1.13.53-2.3,1.09-3.41,1.66s-2.44,1.3-3.64,2a43.77,43.77,0,0,0-12.81,10.59,62.5,62.5,0,0,0-7.51,10.63,48.28,48.28,0,0,0-5.86,25.65,1.29,1.29,0,0,0,.05.4A109.11,109.11,0,0,0,141,82c.39,1.56.19,2.58-1.83,3.6a2.19,2.19,0,0,1-2.65-.34,12.91,12.91,0,0,1-1-.9c-1-1-2-2-3-3.1a101.69,101.69,0,0,0-7.72-7.54c-2.12-1.94-4.28-3.93-6.53-5.73a33.28,33.28,0,0,0-14-6.68c-1.68-.37-3.33-.7-5-1a38.6,38.6,0,0,0-15,1A58,58,0,0,0,74.25,65c-1.82.83-3.55,1.71-5.31,2.61-.22.09-.42.28-.64.37.24.61.23.67-.43,1a19.21,19.21,0,0,0-3.16,1.79,17,17,0,0,0-3.4,2.75,16.81,16.81,0,0,0-3.42,6.26q-3.73,12.75-7.53,25.54c-2.48,8.44-5,16.83-7.4,25.24L35,157.34q-3.63,12.27-7.22,24.51c-1.09,3.65-2.16,7.34-3.21,11a.86.86,0,0,1-.51.56A3.24,3.24,0,0,0,28.52,196a.73.73,0,0,1,.47-.7c2.6-1.63,5-3.54,7.54-5.2,1.45-1,2.9-1.94,4.34-2.84,1.73-1,3.53-2,5.33-2.9l4.93-2.45a47.65,47.65,0,0,1,13.26-4.39A117.35,117.35,0,0,1,85,175.77c2.28,0,4.54.28,6.78.49a110.38,110.38,0,0,1,15.06,2.42,26.56,26.56,0,0,1,3.11,1c.56.18.58.28.45.91,1.13.46,2.28.86,3.43,1.35a7.78,7.78,0,0,0,2.4.61,1,1,0,0,1,.69-.19c3.72-.71,6.8-2.44,8.73-5.82a14.37,14.37,0,0,0,1.39-4.29c.23-1,.39-2.13.57-3.19.3-1.69.69-3.33,1.06-5,2.34-11.77,4.62-23.55,6.93-35.35,2.09-10.82,4.24-21.64,6.33-32.46.51-2.71,1.05-5.44,1.56-8.15a2.6,2.6,0,0,1,.18-.73.43.43,0,0,1,.52-.29.5.5,0,0,1,.34.43,7.76,7.76,0,0,1-.11.91c-1.75,8.94-3.53,17.9-5.28,26.84l-6.44,32.87c-.79,4.11-1.6,8.18-2.38,12.29-.05.25-.2.52,0,.79-.19.13-.16.33,0,.52,0-.19.25-.28.06-.48.32-.1.32-.44.42-.61.9-2,1.77-4.11,2.87-6.11a151.49,151.49,0,0,1,8.58-14.38c-.58-.45-.56-.51-.12-1.09,1.35-1.61,2.72-3.19,4.18-4.71,2.66-2.71,5.34-5.38,8.21-7.85,1.32-1.16,2.59-2.39,3.93-3.51a28,28,0,0,1,2.7-2.07,6.34,6.34,0,0,0,3-4.53c.52-2.94,1-5.88,1.52-8.79.67-3.87,1.34-7.73,2-11.63.87-4.88,1.71-9.74,2.56-14.66.85-4.76,1.67-9.55,2.52-14.31s1.69-9.68,2.51-14.48,1.7-9.68,2.52-14.47,1.69-9.68,2.51-14.47c.19-1.12.39-2.25.58-3.36.06-.49.27-.74.8-.7,0-.36.07-.72.07-1A2.14,2.14,0,0,0,179.27,16.06ZM132.8,93.39c-.3,1.69-.57,3.36-.87,5-3.38,19.62-6.82,39.24-10.2,58.86-1,5.82-2,11.63-3,17.45-.09.61-.42,1.11-.53,1.68,0,.26-.29.31-.52.3a1.27,1.27,0,0,1-.47-.13,129.24,129.24,0,0,0-18.15-4.66,77.77,77.77,0,0,0-11.18-1.48,108.42,108.42,0,0,0-18.63.74,66.82,66.82,0,0,0-17.65,5A91.86,91.86,0,0,0,42,181.25a76.37,76.37,0,0,0-7.68,5.17,10.61,10.61,0,0,0-.94.74,7.54,7.54,0,0,1-1.7,1.08c-.33.16-.57,0-.66-.33a2.32,2.32,0,0,1,.14-1.36c.92-2.83,1.82-5.69,2.68-8.52Q46.93,136.75,60,95.55c1.32-4.13,2.67-8.29,4-12.46a4.92,4.92,0,0,1,1.62-2.52,60.56,60.56,0,0,1,6.27-5.06,50.5,50.5,0,0,1,7.67-4.35,26.83,26.83,0,0,1,5.05-1.44,55.05,55.05,0,0,1,8.5-1.2,22,22,0,0,1,8.33,1,60.71,60.71,0,0,1,20.24,10.77,56.63,56.63,0,0,1,8.92,9.32c.71.9,1.39,1.83,2.07,2.7A1.38,1.38,0,0,1,132.8,93.39Zm44.51-70c-.09.45-.17.89-.24,1.38q-6.47,33.77-12.88,67.55l-4.45,23.38a1.85,1.85,0,0,1-1.06,1.47c-.48.27-.91.61-1.33.89a69.41,69.41,0,0,0-9.86,8.67,62.22,62.22,0,0,0-8.72,11.39c-.34.56-.69,1.18-1,1.74-.06.09-.1.18-.16.27a.44.44,0,0,1-.58.11.38.38,0,0,1-.17-.49c.1-.51.24-1,.32-1.59,1.43-8.35,2.83-16.73,4.26-25.07,1.65-9.59,3.23-19.2,4.9-28.75a8.85,8.85,0,0,0,0-3.08,101.88,101.88,0,0,1-1.41-13.34A38.25,38.25,0,0,1,147.41,52,52.58,52.58,0,0,1,159,33.62,42.67,42.67,0,0,1,163,30a64.32,64.32,0,0,1,8.34-5.51c1.3-.76,2.69-1.41,4-2.14a3.13,3.13,0,0,1,.54-.19C176.85,21.86,177.48,22.38,177.31,23.37ZM129.1,89.24c.84,1.1,1.68,2.19,2.56,3.26a1.33,1.33,0,0,1,.2,1.13c-.7,4-1.38,7.92-2.08,11.92l-12,69c0,.19-.07.38-.11.57-.14.53-.22.59-.74.38a98.89,98.89,0,0,0-9.86-2.8,110.91,110.91,0,0,0-17.66-3.11,108.19,108.19,0,0,0-14.29.06A66.65,66.65,0,0,0,57.36,173a70.88,70.88,0,0,0-12.83,5.64c-2,1.18-4,2.3-6,3.56s-4.08,2.88-6.06,4.37c-.16.1-.26.28-.53.29a2.34,2.34,0,0,1,.22-.91q16.34-51.43,32.7-103a3.86,3.86,0,0,1,1.19-1.68,56.73,56.73,0,0,1,11.31-8.15,19.62,19.62,0,0,1,5.1-2,65.44,65.44,0,0,1,10.22-1.69,23.31,23.31,0,0,1,9.12,1.2,60.69,60.69,0,0,1,18.88,10.13A55.34,55.34,0,0,1,129.1,89.24ZM174,24.12a17.64,17.64,0,0,1,2.4-1.1,1.67,1.67,0,0,1-.06,1q-4.08,21.51-8.19,43C165.08,83,162,99,159,115a2.12,2.12,0,0,1-1.12,1.62,47.32,47.32,0,0,0-7.39,5.93c-2.12,2-4.24,4-6.14,6.25A68.63,68.63,0,0,0,139,136c-.1.18-.27.34-.37.52a.31.31,0,0,1-.18.06,1,1,0,0,1,0-.88c.48-2.75.9-5.51,1.38-8.26l7.45-43.91a3.45,3.45,0,0,0,0-1.28,118.66,118.66,0,0,1-1.55-14,38.75,38.75,0,0,1,2.54-16.09A51.59,51.59,0,0,1,159.26,34.7,38.13,38.13,0,0,1,164.69,30,67.94,67.94,0,0,1,174,24.12ZM138.33,136.69a.15.15,0,0,1,.1,0v.07a.19.19,0,0,1-.1,0Z" transform="translate(-15.16 -4.93)"/>
    </g>
  </g>
</svg>
